#N canvas 2 79 2560 1276 12;
#N canvas 0 50 668 528 dbtoa 0;
#X obj 58 96 t b f;
#X msg 59 129 100;
#X obj 58 169 +;
#X obj 55 49 inlet;
#X msg 56 244 \$1 10;
#X obj 56 208 dbtorms;
#X obj 57 326 outlet~;
#X obj 56 278 line~;
#X obj 148 212 loadbang;
#X msg 148 244 1;
#X connect 0 0 1 0;
#X connect 0 1 2 1;
#X connect 1 0 2 0;
#X connect 2 0 5 0;
#X connect 3 0 0 0;
#X connect 4 0 7 0;
#X connect 5 0 4 0;
#X connect 7 0 6 0;
#X connect 8 0 9 0;
#X connect 9 0 4 0;
#X restore 199 141 pd dbtoa;
#X text 144 77 A test controlling a "graphic" style EQ from node interface
;
#X text 74 181 Pre-gain;
#X obj 145 255 para_bp2~ 31 1.41 0 10;
#X obj 146 675 dac~;
#X obj 146 290 para_bp2~ 62 1.41 0 10;
#X obj 145 322 para_bp2~ 125 1.41 0 10;
#X obj 145 362 para_bp2~ 250 1.41 0 10;
#X obj 146 403 para_bp2~ 500 1.41 0 10;
#X obj 146 440 para_bp2~ 1000 1.41 0 10;
#X obj 147 475 para_bp2~ 2000 1.41 0 10;
#X obj 146 507 para_bp2~ 4000 1.41 0 10;
#X obj 146 547 para_bp2~ 8000 1.41 0 10;
#X obj 147 588 para_bp2~ 16000 1.41 0 10;
#X obj 475 263 para_bp2~ 31 1.41 0 10;
#X obj 476 298 para_bp2~ 62 1.41 0 10;
#X obj 475 330 para_bp2~ 125 1.41 0 10;
#X obj 475 370 para_bp2~ 250 1.41 0 10;
#X obj 476 411 para_bp2~ 500 1.41 0 10;
#X obj 476 448 para_bp2~ 1000 1.41 0 10;
#X obj 477 483 para_bp2~ 2000 1.41 0 10;
#X obj 476 515 para_bp2~ 4000 1.41 0 10;
#X obj 476 555 para_bp2~ 8000 1.41 0 10;
#X obj 477 596 para_bp2~ 16000 1.41 0 10;
#X obj 147 181 *~;
#N canvas 0 50 1259 779 oscreceives 0;
#X obj 53 63 netreceive -u -b 3000;
#X obj 53 101 oscparse;
#X obj 52 142 route list;
#X obj 44 275 s pg;
#X obj 85 276 s f0;
#X obj 57 178 route pg f0 f1 f2 f3 f4 f5 f6 f7 f8 f9;
#X obj 128 276 s f1;
#X obj 171 277 s f2;
#X obj 211 276 s f3;
#X obj 256 276 s f4;
#X obj 299 277 s f5;
#X obj 346 277 s f6;
#X obj 393 275 s f7;
#X obj 437 276 s f8;
#X obj 483 280 s f9;
#X connect 0 0 1 0;
#X connect 1 0 2 0;
#X connect 2 0 5 0;
#X connect 5 0 3 0;
#X connect 5 1 4 0;
#X connect 5 2 6 0;
#X connect 5 3 7 0;
#X connect 5 4 8 0;
#X connect 5 5 9 0;
#X connect 5 6 10 0;
#X connect 5 7 11 0;
#X connect 5 8 12 0;
#X connect 5 9 13 0;
#X connect 5 10 14 0;
#X restore 619 85 pd oscreceives;
#N canvas 0 50 450 148 pg_routing 0;
#X obj 35 33 r pg;
#X obj 33 78 route gain;
#X obj 32 139 outlet;
#X connect 0 0 1 0;
#X connect 1 0 2 0;
#X restore 200 106 pd pg_routing;
#N canvas 0 50 887 438 f0_routing 0;
#X obj 32 139 outlet;
#X obj 87 139 outlet;
#X obj 146 138 outlet;
#X obj 35 33 r f0;
#X obj 33 78 route freq q gain;
#X connect 3 0 4 0;
#X connect 4 0 0 0;
#X connect 4 1 1 0;
#X connect 4 2 2 0;
#X restore 333 235 pd f0_routing;
#N canvas 0 50 560 396 f1_routing 0;
#X obj 32 139 outlet;
#X obj 87 139 outlet;
#X obj 146 138 outlet;
#X obj 33 78 route freq q gain;
#X obj 35 33 r f1;
#X connect 3 0 0 0;
#X connect 3 1 1 0;
#X connect 3 2 2 0;
#X connect 4 0 3 0;
#X restore 338 269 pd f1_routing;
#N canvas 0 50 634 429 f2_routing 0;
#X obj 32 139 outlet;
#X obj 87 139 outlet;
#X obj 146 138 outlet;
#X obj 33 78 route freq q gain;
#X obj 35 33 r f2;
#X connect 3 0 0 0;
#X connect 3 1 1 0;
#X connect 3 2 2 0;
#X connect 4 0 3 0;
#X restore 340 303 pd f2_routing;
#N canvas 0 50 687 537 f3_routing 0;
#X obj 32 139 outlet;
#X obj 87 139 outlet;
#X obj 146 138 outlet;
#X obj 33 78 route freq q gain;
#X obj 35 33 r f3;
#X connect 3 0 0 0;
#X connect 3 1 1 0;
#X connect 3 2 2 0;
#X connect 4 0 3 0;
#X restore 342 342 pd f3_routing;
#N canvas 0 50 677 488 f4_routing 0;
#X obj 32 139 outlet;
#X obj 87 139 outlet;
#X obj 146 138 outlet;
#X obj 33 78 route freq q gain;
#X obj 35 33 r f4;
#X connect 3 0 0 0;
#X connect 3 1 1 0;
#X connect 3 2 2 0;
#X connect 4 0 3 0;
#X restore 344 386 pd f4_routing;
#N canvas 0 50 450 189 f5_routing 0;
#X obj 32 139 outlet;
#X obj 87 139 outlet;
#X obj 146 138 outlet;
#X obj 33 78 route freq q gain;
#X obj 35 33 r f5;
#X connect 3 0 0 0;
#X connect 3 1 1 0;
#X connect 3 2 2 0;
#X connect 4 0 3 0;
#X restore 346 421 pd f5_routing;
#N canvas 0 50 450 189 f6_routing 0;
#X obj 32 139 outlet;
#X obj 87 139 outlet;
#X obj 146 138 outlet;
#X obj 33 78 route freq q gain;
#X obj 35 33 r f6;
#X connect 3 0 0 0;
#X connect 3 1 1 0;
#X connect 3 2 2 0;
#X connect 4 0 3 0;
#X restore 347 457 pd f6_routing;
#N canvas 0 50 450 189 f7_routing 0;
#X obj 32 139 outlet;
#X obj 87 139 outlet;
#X obj 146 138 outlet;
#X obj 33 78 route freq q gain;
#X obj 35 33 r f7;
#X connect 3 0 0 0;
#X connect 3 1 1 0;
#X connect 3 2 2 0;
#X connect 4 0 3 0;
#X restore 351 489 pd f7_routing;
#N canvas 0 50 540 389 f8_routing 0;
#X obj 32 139 outlet;
#X obj 87 139 outlet;
#X obj 146 138 outlet;
#X obj 33 78 route freq q gain;
#X obj 35 33 r f8;
#X connect 3 0 0 0;
#X connect 3 1 1 0;
#X connect 3 2 2 0;
#X connect 4 0 3 0;
#X restore 356 527 pd f8_routing;
#N canvas 0 50 450 189 f9_routing 0;
#X obj 32 139 outlet;
#X obj 87 139 outlet;
#X obj 146 138 outlet;
#X obj 33 78 route freq q gain;
#X obj 35 33 r f9;
#X connect 3 0 0 0;
#X connect 3 1 1 0;
#X connect 3 2 2 0;
#X connect 4 0 3 0;
#X restore 355 568 pd f9_routing;
#X obj 145 119 noise~;
#N canvas 0 50 450 250 (subpatch) 0;
#X array sampleL 7.44643e+006 float 2;
#X coords 0 1 7.44643e+006 -1 200 140 1 0 0;
#X restore 754 276 graph;
#N canvas 0 50 450 250 (subpatch) 0;
#X array sampleR 7.44643e+006 float 2;
#X coords 0 1 7.44643e+006 -1 200 140 1;
#X restore 964 276 graph;
#X obj 755 165 soundfiler;
#X msg 747 82 read -resize C:/Users/zberko1/Downloads/domdownload202012080406/dp/lyl.wav
sampleL sampleR;
#X obj 473 190 *~;
#X obj 409 97 bng 15 250 50 0 empty empty empty 17 7 0 10 -262144 -1
-1;
#X msg 442 95 stop;
#X obj 303 142 tabplay~ sampleL;
#X obj 469 149 tabplay~ sampleR;
#X obj 689 660 *~;
#X obj 737 662 *~;
#X obj 750 611 tgl 15 0 empty empty empty 17 7 0 10 -262144 -1 -1 0
1;
#X obj 146 220 *~;
#X obj 475 223 *~;
#X obj 615 223 -;
#X msg 615 191 1;
#X obj 615 161 t b f;
#X obj 583 224 tgl 15 0 empty empty empty 17 7 0 10 -262144 -1 -1 1
1;
#X text 774 610 EQ Off;
#X obj 541 176 loadbang;
#X msg 541 202 1;
#X connect 0 0 24 1;
#X connect 0 0 42 1;
#X connect 3 0 5 0;
#X connect 5 0 6 0;
#X connect 6 0 7 0;
#X connect 7 0 8 0;
#X connect 8 0 9 0;
#X connect 9 0 10 0;
#X connect 10 0 11 0;
#X connect 11 0 12 0;
#X connect 12 0 13 0;
#X connect 13 0 4 0;
#X connect 14 0 15 0;
#X connect 15 0 16 0;
#X connect 16 0 17 0;
#X connect 17 0 18 0;
#X connect 18 0 19 0;
#X connect 19 0 20 0;
#X connect 20 0 21 0;
#X connect 21 0 22 0;
#X connect 22 0 23 0;
#X connect 23 0 4 1;
#X connect 24 0 50 0;
#X connect 26 0 0 0;
#X connect 27 0 3 1;
#X connect 27 0 14 1;
#X connect 27 1 3 2;
#X connect 27 1 14 2;
#X connect 27 2 3 3;
#X connect 27 2 14 3;
#X connect 28 0 5 1;
#X connect 28 0 15 1;
#X connect 28 1 5 2;
#X connect 28 1 15 2;
#X connect 28 2 5 3;
#X connect 28 2 15 3;
#X connect 29 0 6 1;
#X connect 29 0 16 1;
#X connect 29 1 6 2;
#X connect 29 1 16 2;
#X connect 29 2 6 3;
#X connect 29 2 16 3;
#X connect 30 0 7 1;
#X connect 30 0 17 1;
#X connect 30 1 7 2;
#X connect 30 1 17 2;
#X connect 30 2 7 3;
#X connect 30 2 17 3;
#X connect 31 0 8 1;
#X connect 31 0 18 1;
#X connect 31 1 8 2;
#X connect 31 1 18 2;
#X connect 31 2 8 3;
#X connect 31 2 18 3;
#X connect 32 0 9 1;
#X connect 32 0 19 1;
#X connect 32 1 9 2;
#X connect 32 1 19 2;
#X connect 32 2 9 3;
#X connect 32 2 19 3;
#X connect 33 0 10 1;
#X connect 33 0 20 1;
#X connect 33 1 10 2;
#X connect 33 1 20 2;
#X connect 33 2 10 3;
#X connect 33 2 20 3;
#X connect 34 0 11 1;
#X connect 34 0 21 1;
#X connect 34 1 11 2;
#X connect 34 1 21 2;
#X connect 34 2 11 3;
#X connect 34 2 21 3;
#X connect 35 0 12 1;
#X connect 35 0 22 1;
#X connect 35 1 12 2;
#X connect 35 1 22 2;
#X connect 35 2 12 3;
#X connect 35 2 22 3;
#X connect 36 0 13 1;
#X connect 36 0 23 1;
#X connect 36 1 13 2;
#X connect 36 1 23 2;
#X connect 36 2 13 3;
#X connect 36 2 23 3;
#X connect 41 0 40 0;
#X connect 42 0 51 0;
#X connect 43 0 45 0;
#X connect 43 0 46 0;
#X connect 44 0 45 0;
#X connect 44 0 46 0;
#X connect 45 0 24 0;
#X connect 45 0 47 0;
#X connect 46 0 42 0;
#X connect 46 0 48 0;
#X connect 47 0 4 0;
#X connect 48 0 4 1;
#X connect 49 0 48 1;
#X connect 49 0 47 1;
#X connect 49 0 54 0;
#X connect 50 0 3 0;
#X connect 51 0 14 0;
#X connect 52 0 55 0;
#X connect 53 0 52 0;
#X connect 54 0 53 0;
#X connect 54 1 52 1;
#X connect 55 0 51 1;
#X connect 55 0 50 1;
#X connect 57 0 58 0;
#X connect 58 0 55 0;
