#N canvas 1527 19 1170 779 12;
#N canvas 0 50 668 528 dbtoa 0;
#X obj 58 96 t b f;
#X msg 59 129 100;
#X obj 58 169 +;
#X obj 55 49 inlet;
#X msg 56 244 \$1 10;
#X obj 56 208 dbtorms;
#X obj 57 326 outlet~;
#X obj 56 278 line~;
#X obj 148 212 loadbang;
#X msg 148 244 1;
#X connect 0 0 1 0;
#X connect 0 1 2 1;
#X connect 1 0 2 0;
#X connect 2 0 5 0;
#X connect 3 0 0 0;
#X connect 4 0 7 0;
#X connect 5 0 4 0;
#X connect 7 0 6 0;
#X connect 8 0 9 0;
#X connect 9 0 4 0;
#X restore 566 175 pd dbtoa;
#X text -24 211 Pre-gain;
#X obj 50 302 para_bp2~ 31 1.41 0 10;
#X obj 49 868 dac~;
#X obj 49 399 para_bp2~ 62 1.41 0 10;
#X obj 48 431 para_bp2~ 125 1.41 0 10;
#X obj 48 471 para_bp2~ 250 1.41 0 10;
#X obj 49 512 para_bp2~ 500 1.41 0 10;
#X obj 49 549 para_bp2~ 1000 1.41 0 10;
#X obj 50 584 para_bp2~ 2000 1.41 0 10;
#X obj 49 616 para_bp2~ 4000 1.41 0 10;
#X obj 49 656 para_bp2~ 8000 1.41 0 10;
#X obj 486 396 para_bp2~ 62 1.41 0 10;
#X obj 485 428 para_bp2~ 125 1.41 0 10;
#X obj 485 468 para_bp2~ 250 1.41 0 10;
#X obj 486 509 para_bp2~ 500 1.41 0 10;
#X obj 486 546 para_bp2~ 1000 1.41 0 10;
#X obj 487 581 para_bp2~ 2000 1.41 0 10;
#X obj 486 613 para_bp2~ 4000 1.41 0 10;
#X obj 486 653 para_bp2~ 8000 1.41 0 10;
#X obj 50 211 *~;
#N canvas 1625 115 685 424 oscreceives 0;
#X obj 53 63 netreceive -u -b 3000;
#X obj 53 101 oscparse;
#X obj 52 142 route list;
#X obj 44 275 s pg;
#X obj 85 276 s f0;
#X obj 128 276 s f1;
#X obj 171 277 s f2;
#X obj 211 276 s f3;
#X obj 256 276 s f4;
#X obj 299 277 s f5;
#X obj 346 277 s f6;
#X obj 393 275 s f7;
#X obj 437 276 s f8;
#X obj 483 280 s f9;
#X obj 57 178 route pg f0 f1 f2 f3 f4 f5 f6 f7 f8 f9 bypass;
#X obj 527 279 s bp;
#X connect 0 0 1 0;
#X connect 1 0 2 0;
#X connect 2 0 14 0;
#X connect 14 0 3 0;
#X connect 14 1 4 0;
#X connect 14 2 5 0;
#X connect 14 3 6 0;
#X connect 14 4 7 0;
#X connect 14 5 8 0;
#X connect 14 6 9 0;
#X connect 14 7 10 0;
#X connect 14 8 11 0;
#X connect 14 9 12 0;
#X connect 14 10 13 0;
#X connect 14 11 15 0;
#X restore 602 86 pd oscreceives;
#N canvas 0 50 450 148 pg_routing 0;
#X obj 35 33 r pg;
#X obj 33 78 route gain;
#X obj 32 139 outlet;
#X connect 0 0 1 0;
#X connect 1 0 2 0;
#X restore 567 140 pd pg_routing;
#N canvas 0 50 692 358 f0_routing 0;
#X obj 32 139 outlet;
#X obj 87 139 outlet;
#X obj 146 138 outlet;
#X obj 35 33 r f0;
#X obj 33 78 route freq q gain type;
#X obj 208 138 sel 0 1 2;
#X msg 209 201 1;
#X msg 246 201 0;
#X obj 209 236 outlet;
#X msg 285 200 1;
#X msg 322 200 0;
#X obj 285 235 outlet;
#X msg 366 200 1;
#X msg 403 200 0;
#X obj 366 235 outlet;
#X obj 285 65 loadbang;
#X msg 285 95 0;
#X connect 3 0 4 0;
#X connect 4 0 0 0;
#X connect 4 1 1 0;
#X connect 4 2 2 0;
#X connect 4 3 5 0;
#X connect 5 0 6 0;
#X connect 5 0 10 0;
#X connect 5 0 13 0;
#X connect 5 1 7 0;
#X connect 5 1 9 0;
#X connect 5 1 13 0;
#X connect 5 2 7 0;
#X connect 5 2 10 0;
#X connect 5 2 12 0;
#X connect 6 0 8 0;
#X connect 7 0 8 0;
#X connect 9 0 11 0;
#X connect 10 0 11 0;
#X connect 12 0 14 0;
#X connect 13 0 14 0;
#X connect 15 0 16 0;
#X connect 16 0 5 0;
#X restore 867 238 pd f0_routing;
#N canvas 0 50 560 396 f1_routing 0;
#X obj 32 139 outlet;
#X obj 87 139 outlet;
#X obj 146 138 outlet;
#X obj 33 78 route freq q gain;
#X obj 35 33 r f1;
#X connect 3 0 0 0;
#X connect 3 1 1 0;
#X connect 3 2 2 0;
#X connect 4 0 3 0;
#X restore 300 380 pd f1_routing;
#N canvas 0 50 634 429 f2_routing 0;
#X obj 32 139 outlet;
#X obj 87 139 outlet;
#X obj 146 138 outlet;
#X obj 33 78 route freq q gain;
#X obj 35 33 r f2;
#X connect 3 0 0 0;
#X connect 3 1 1 0;
#X connect 3 2 2 0;
#X connect 4 0 3 0;
#X restore 302 414 pd f2_routing;
#N canvas 0 50 687 537 f3_routing 0;
#X obj 32 139 outlet;
#X obj 87 139 outlet;
#X obj 146 138 outlet;
#X obj 33 78 route freq q gain;
#X obj 35 33 r f3;
#X connect 3 0 0 0;
#X connect 3 1 1 0;
#X connect 3 2 2 0;
#X connect 4 0 3 0;
#X restore 304 453 pd f3_routing;
#N canvas 0 50 677 488 f4_routing 0;
#X obj 32 139 outlet;
#X obj 87 139 outlet;
#X obj 146 138 outlet;
#X obj 33 78 route freq q gain;
#X obj 35 33 r f4;
#X connect 3 0 0 0;
#X connect 3 1 1 0;
#X connect 3 2 2 0;
#X connect 4 0 3 0;
#X restore 306 497 pd f4_routing;
#N canvas 0 50 450 189 f5_routing 0;
#X obj 32 139 outlet;
#X obj 87 139 outlet;
#X obj 146 138 outlet;
#X obj 33 78 route freq q gain;
#X obj 35 33 r f5;
#X connect 3 0 0 0;
#X connect 3 1 1 0;
#X connect 3 2 2 0;
#X connect 4 0 3 0;
#X restore 308 532 pd f5_routing;
#N canvas 0 50 450 189 f6_routing 0;
#X obj 32 139 outlet;
#X obj 87 139 outlet;
#X obj 146 138 outlet;
#X obj 33 78 route freq q gain;
#X obj 35 33 r f6;
#X connect 3 0 0 0;
#X connect 3 1 1 0;
#X connect 3 2 2 0;
#X connect 4 0 3 0;
#X restore 309 568 pd f6_routing;
#N canvas 0 50 450 189 f7_routing 0;
#X obj 32 139 outlet;
#X obj 87 139 outlet;
#X obj 146 138 outlet;
#X obj 33 78 route freq q gain;
#X obj 35 33 r f7;
#X connect 3 0 0 0;
#X connect 3 1 1 0;
#X connect 3 2 2 0;
#X connect 4 0 3 0;
#X restore 313 600 pd f7_routing;
#N canvas 0 50 540 389 f8_routing 0;
#X obj 32 139 outlet;
#X obj 87 139 outlet;
#X obj 146 138 outlet;
#X obj 33 78 route freq q gain;
#X obj 35 33 r f8;
#X connect 3 0 0 0;
#X connect 3 1 1 0;
#X connect 3 2 2 0;
#X connect 4 0 3 0;
#X restore 318 638 pd f8_routing;
#X obj 481 213 *~;
#X obj 1001 808 *~;
#X obj 1035 809 *~;
#X obj 1049 756 tgl 15 0 empty empty empty 17 7 0 10 -262144 -1 -1
0 1;
#X obj 52 143 *~;
#X obj 478 156 *~;
#X text 1073 755 EQ Off;
#X text 50 32 piEQ;
#X obj 53 89 adc~;
#N canvas 0 50 479 268 inverse 0;
#X obj 82 32 inlet;
#X obj 82 127 -;
#X msg 82 95 1;
#X obj 82 65 t b f;
#X obj 14 97 loadbang;
#X msg 14 123 1;
#X obj 19 171 outlet;
#X text 140 98 Inverse to create a "switch";
#X connect 0 0 3 0;
#X connect 1 0 6 0;
#X connect 2 0 1 0;
#X connect 3 0 2 0;
#X connect 3 1 1 1;
#X connect 4 0 5 0;
#X connect 5 0 6 0;
#X restore 493 87 pd inverse;
#X obj 494 116 tgl 15 0 empty empty empty 17 7 0 10 -262144 -1 -1 1
1;
#N canvas 302 129 295 232 bp_routing 0;
#X obj 24 25 r bp;
#X obj 22 64 route state;
#X obj 23 106 outlet;
#X connect 0 0 1 0;
#X connect 1 0 2 0;
#X restore 1049 721 pd bp_routing;
#X obj 434 301 hip~;
#X obj 222 302 hml_shelf~ 0 100 0 4000 0 10;
#X obj 50 339 *~;
#X obj 433 335 *~;
#X obj 220 336 *~;
#X obj 485 299 para_bp2~ 31 1.41 0 10;
#X obj 869 298 hip~;
#X obj 657 299 hml_shelf~ 0 100 0 4000 0 10;
#X obj 485 336 *~;
#X obj 868 332 *~;
#X obj 655 333 *~;
#X obj 230 720 hml_shelf~ 0 100 0 4000 0 10;
#X obj 49 757 *~;
#X obj 436 752 *~;
#X obj 228 754 *~;
#X obj 672 717 hml_shelf~ 0 100 0 4000 0 10;
#X obj 484 754 *~;
#X obj 876 751 *~;
#X obj 670 751 *~;
#N canvas 0 50 692 358 f9_routing 0;
#X obj 32 139 outlet;
#X obj 87 139 outlet;
#X obj 146 138 outlet;
#X obj 33 78 route freq q gain type;
#X obj 208 138 sel 0 1 2;
#X msg 209 201 1;
#X msg 246 201 0;
#X obj 209 236 outlet;
#X msg 285 200 1;
#X msg 322 200 0;
#X obj 285 235 outlet;
#X msg 366 200 1;
#X msg 403 200 0;
#X obj 366 235 outlet;
#X obj 285 65 loadbang;
#X msg 285 95 0;
#X obj 35 33 r f9;
#X connect 3 0 0 0;
#X connect 3 1 1 0;
#X connect 3 2 2 0;
#X connect 3 3 4 0;
#X connect 4 0 5 0;
#X connect 4 0 9 0;
#X connect 4 0 12 0;
#X connect 4 1 6 0;
#X connect 4 1 8 0;
#X connect 4 1 12 0;
#X connect 4 2 6 0;
#X connect 4 2 9 0;
#X connect 4 2 11 0;
#X connect 5 0 7 0;
#X connect 6 0 7 0;
#X connect 8 0 10 0;
#X connect 9 0 10 0;
#X connect 11 0 13 0;
#X connect 12 0 13 0;
#X connect 14 0 15 0;
#X connect 15 0 4 0;
#X connect 16 0 3 0;
#X restore 897 651 pd f9_routing;
#X obj 437 718 lop~;
#X obj 877 717 lop~;
#X msg 772 64 \; pd dsp 1;
#X obj 771 20 loadbang;
#X obj 49 720 para_bp2~ 16000 1.41 0 10;
#X obj 484 717 para_bp2~ 16000 1.41 0 10;
#X connect 0 0 20 1;
#X connect 0 0 32 1;
#X connect 2 0 46 0;
#X connect 4 0 5 0;
#X connect 5 0 6 0;
#X connect 6 0 7 0;
#X connect 7 0 8 0;
#X connect 8 0 9 0;
#X connect 9 0 10 0;
#X connect 10 0 11 0;
#X connect 11 0 55 0;
#X connect 11 0 64 0;
#X connect 11 0 68 0;
#X connect 12 0 13 0;
#X connect 13 0 14 0;
#X connect 14 0 15 0;
#X connect 15 0 16 0;
#X connect 16 0 17 0;
#X connect 17 0 18 0;
#X connect 18 0 19 0;
#X connect 19 0 59 0;
#X connect 19 0 65 0;
#X connect 19 0 69 0;
#X connect 20 0 2 0;
#X connect 20 0 44 0;
#X connect 20 0 45 0;
#X connect 22 0 0 0;
#X connect 23 0 2 1;
#X connect 23 0 44 1;
#X connect 23 0 45 2;
#X connect 23 0 49 1;
#X connect 23 0 51 2;
#X connect 23 0 50 1;
#X connect 23 1 2 2;
#X connect 23 1 49 2;
#X connect 23 2 2 3;
#X connect 23 2 45 1;
#X connect 23 2 49 3;
#X connect 23 2 51 1;
#X connect 23 3 46 1;
#X connect 23 3 52 1;
#X connect 23 4 48 1;
#X connect 23 4 54 1;
#X connect 23 5 47 1;
#X connect 23 5 53 1;
#X connect 24 0 4 1;
#X connect 24 0 12 1;
#X connect 24 1 4 2;
#X connect 24 1 12 2;
#X connect 24 2 4 3;
#X connect 24 2 12 3;
#X connect 25 0 5 1;
#X connect 25 0 13 1;
#X connect 25 1 5 2;
#X connect 25 1 13 2;
#X connect 25 2 5 3;
#X connect 25 2 13 3;
#X connect 26 0 6 1;
#X connect 26 0 14 1;
#X connect 26 1 6 2;
#X connect 26 1 14 2;
#X connect 26 2 6 3;
#X connect 26 2 14 3;
#X connect 27 0 7 1;
#X connect 27 0 15 1;
#X connect 27 1 7 2;
#X connect 27 1 15 2;
#X connect 27 2 7 3;
#X connect 27 2 15 3;
#X connect 28 0 8 1;
#X connect 28 0 16 1;
#X connect 28 1 8 2;
#X connect 28 1 16 2;
#X connect 28 2 8 3;
#X connect 28 2 16 3;
#X connect 29 0 9 1;
#X connect 29 0 17 1;
#X connect 29 1 9 2;
#X connect 29 1 17 2;
#X connect 29 2 9 3;
#X connect 29 2 17 3;
#X connect 30 0 10 1;
#X connect 30 0 18 1;
#X connect 30 1 10 2;
#X connect 30 1 18 2;
#X connect 30 2 10 3;
#X connect 30 2 18 3;
#X connect 31 0 11 1;
#X connect 31 0 19 1;
#X connect 31 1 11 2;
#X connect 31 1 19 2;
#X connect 31 2 11 3;
#X connect 31 2 19 3;
#X connect 32 0 49 0;
#X connect 32 0 51 0;
#X connect 32 0 50 0;
#X connect 33 0 3 0;
#X connect 34 0 3 1;
#X connect 35 0 34 1;
#X connect 35 0 33 1;
#X connect 35 0 41 0;
#X connect 36 0 20 0;
#X connect 37 0 32 0;
#X connect 40 0 36 0;
#X connect 40 0 33 0;
#X connect 40 1 37 0;
#X connect 40 1 34 0;
#X connect 41 0 42 0;
#X connect 42 0 37 1;
#X connect 42 0 36 1;
#X connect 43 0 35 0;
#X connect 44 0 47 0;
#X connect 45 0 48 0;
#X connect 46 0 4 0;
#X connect 47 0 4 0;
#X connect 48 0 4 0;
#X connect 49 0 52 0;
#X connect 50 0 53 0;
#X connect 51 0 54 0;
#X connect 52 0 12 0;
#X connect 53 0 12 0;
#X connect 54 0 12 0;
#X connect 55 0 58 0;
#X connect 56 0 3 0;
#X connect 57 0 3 0;
#X connect 58 0 3 0;
#X connect 59 0 62 0;
#X connect 60 0 3 1;
#X connect 61 0 3 1;
#X connect 62 0 3 1;
#X connect 63 0 64 1;
#X connect 63 0 65 1;
#X connect 63 0 55 4;
#X connect 63 0 59 4;
#X connect 63 0 68 1;
#X connect 63 0 69 1;
#X connect 63 1 68 2;
#X connect 63 1 69 2;
#X connect 63 2 59 5;
#X connect 63 2 55 5;
#X connect 63 2 68 3;
#X connect 63 2 69 3;
#X connect 63 3 56 1;
#X connect 63 3 60 1;
#X connect 63 4 58 1;
#X connect 63 4 62 1;
#X connect 63 5 57 1;
#X connect 63 5 61 1;
#X connect 64 0 57 0;
#X connect 65 0 61 0;
#X connect 67 0 66 0;
#X connect 68 0 56 0;
#X connect 69 0 60 0;
